<svg xmlns="http://www.w3.org/2000/svg" viewBox="0 0 900 675" width="900" height="675" role="img" aria-label="가정과의 소통 임시 이미지">
  <defs>
    <linearGradient id="bg" x1="0" y1="0" x2="1" y2="1">
      <stop offset="0%" stop-color="#FFE8DC"/>
      <stop offset="100%" stop-color="#FFD3C0"/>
    </linearGradient>
  </defs>
  <rect width="900" height="675" fill="url(#bg)"/>
  <circle cx="126" cy="108" r="88" fill="#ffffff" opacity="0.45"/>
  <circle cx="792" cy="554" r="135" fill="#ffffff" opacity="0.35"/>
  <circle cx="720" cy="122" r="47" fill="#ffffff" opacity="0.5"/>
  <g transform="translate(450.0 276.75) scale(2.596)" fill="#F0A88E">
    <g><path d="M-52-38h74a10 10 0 0 1 10 10v36a10 10 0 0 1-10 10h-40L-40 34l4-16h-16a10 10 0 0 1-10-10v-36a10 10 0 0 1 10-10z"/><path d="M40 0h14a8 8 0 0 1 8 8v28a8 8 0 0 1-8 8h-6l2 12-16-12H24a8 8 0 0 1-8-8" fill="#fff" opacity=".85"/></g>
  </g>
  <text x="450.0" y="499.5" text-anchor="middle" font-family="'Pretendard','Apple SD Gothic Neo','Malgun Gothic',sans-serif" font-size="35" font-weight="700" fill="#8a7466">가정과의 소통</text>
  <text x="450.0" y="546.75" text-anchor="middle" font-family="'Pretendard','Apple SD Gothic Neo','Malgun Gothic',sans-serif" font-size="26" fill="#a8968a">사진을 넣어주세요</text>
</svg>
