<svg xmlns="http://www.w3.org/2000/svg" viewBox="0 0 1600 800" width="1600" height="800" role="img" aria-label="선생님과 아이들 수채화 임시 이미지">
  <defs>
    <linearGradient id="bg" x1="0" y1="0" x2="1" y2="1">
      <stop offset="0%" stop-color="#FFE8DC"/>
      <stop offset="100%" stop-color="#FFD3C0"/>
    </linearGradient>
  </defs>
  <rect width="1600" height="800" fill="url(#bg)"/>
  <circle cx="224" cy="128" r="104" fill="#ffffff" opacity="0.45"/>
  <circle cx="1408" cy="656" r="160" fill="#ffffff" opacity="0.35"/>
  <circle cx="1280" cy="144" r="56" fill="#ffffff" opacity="0.5"/>
  <g transform="translate(800.0 328.0) scale(3.077)" fill="#F0A88E">
    <g><path d="M-52 30c0-22 18-38 40-38h24c22 0 40 16 40 38a8 8 0 0 1-8 8H-44a8 8 0 0 1-8-8z"/><path d="M0-14c-16-10-22-22-14-30 6-6 14-4 14 3 0-7 8-9 14-3 8 8 2 20-14 30z"/></g>
  </g>
  <text x="800.0" y="592.0" text-anchor="middle" font-family="'Pretendard','Apple SD Gothic Neo','Malgun Gothic',sans-serif" font-size="42" font-weight="700" fill="#8a7466">선생님과 아이들 수채화</text>
  <text x="800.0" y="648.7" text-anchor="middle" font-family="'Pretendard','Apple SD Gothic Neo','Malgun Gothic',sans-serif" font-size="30" fill="#a8968a">사진을 넣어주세요</text>
</svg>
